# xmcd CD database file
#
# Track frame offsets:
#	150
#	15028
#	49820
#	67655
#	84992
#	98761
#	120302
#	140864
#	159637
#	181095
#	202899
#	213490
#	235487
#	256894
#	277012
#	300656
#	325561
#	346202
#
# Disc length: 4791 seconds
#
# Revision: 0
# Processed by: cddbd v1.5.2PL0 Copyright (c) Steve Scherf et al.
# Submitted via: CDex 1.51
#
DISCID=ea12b512
DTITLE=Sonny Stitt - Four Classic Albums CD 1
DYEAR=2011
DGENRE=Jazz
TTITLE0=I Cover The Waterfront
TTITLE1=Lazy Bones
TTITLE2=Sunday
TTITLE3=Just Friends
TTITLE4=All Of Me
TTITLE5=Two Bad Days Blues
TTITLE6=It's You Or No One
TTITLE7=Blue Smile
TTITLE8=Easy To Love
TTITLE9=Easy Living
TTITLE10=Autumn In New York
TTITLE11=You'd Be So Nice To Come Home To
TTITLE12=For Some Friends
TTITLE13=I Never Knew
TTITLE14=Between The Devil And The Deep Blue Sea
TTITLE15=East Of The Sun
TTITLE16=Original?
TTITLE17=Avalon
EXTD=YEAR: 2011
EXTT0=
EXTT1=
EXTT2=
EXTT3=
EXTT4=
EXTT5=
EXTT6=
EXTT7=
EXTT8=
EXTT9=
EXTT10=
EXTT11=
EXTT12=
EXTT13=
EXTT14=
EXTT15=
EXTT16=
EXTT17=
PLAYORDER=
